<svg width="88" height="88" xmlns="http://www.w3.org/2000/svg">

 <g>
  <title>background</title>
  <rect fill="none" id="canvas_background" height="90" width="90" y="-1" x="-1"/>
 </g>
 <g>
  <title>Layer 1</title>
  <path id="svg_1" d="m82.447,0l-76.359,0c-3.362,0 -6.088,2.726 -6.088,6.088l0,76.719c0,3.363 2.726,6.089 6.088,6.089l76.719,0c3.363,0 6.089,-2.726 6.089,-6.089l0,-76.718c-0.001,-3.363 -3.085,-6.089 -6.449,-6.089zm-54.417,40.159l-6.322,0l0,-21.282l6.322,0l0,21.282zm24.623,37.198l-16.411,0l0,-8.718c0,-4.532 3.674,-8.205 8.206,-8.205c4.531,0 8.206,3.673 8.206,8.205l0,8.718l-0.001,0zm14.533,-37.198l-6.322,0l0,-21.282l6.322,0l0,21.282z"/>
 </g>
</svg>